<svg width="62" height="42" viewBox="0 0 62 42" fill="none" xmlns="http://www.w3.org/2000/svg">
<path d="M4.42681 0.839844C2.03718 0.839844 0.0393066 2.77189 0.0393066 5.1601V36.8401C0.0393066 39.2277 2.03718 41.1603 4.42681 41.1603H57.5718C59.9614 41.1603 61.9593 39.2283 61.9593 36.8401V5.1601C61.9593 2.77253 59.9614 0.839844 57.5718 0.839844H4.42681ZM5.1691 3.71959H56.8291L32.2591 25.6796C31.6464 26.227 30.3516 26.227 29.7388 25.6796L5.17013 3.71959H5.1691ZM2.91961 5.56433L20.8965 21.6293L2.91961 36.5243V5.56433ZM59.0796 5.56433V36.5243L41.1015 21.6293L59.0783 5.56433H59.0796ZM23.0796 23.5875L27.8272 27.8172C29.6278 29.4264 32.372 29.4264 34.1725 27.8172L38.9201 23.5875L56.672 38.2793H5.32699L23.0788 23.5875H23.0796Z" fill="black"/>
</svg>
