<svg width="446" height="450" viewBox="0 0 446 450" fill="none" xmlns="http://www.w3.org/2000/svg">
<path d="M293.25 349.9H293.234C251.308 349.873 203.226 326.474 161.314 285.701C161.244 285.631 161.174 285.561 161.104 285.49C120.331 243.584 96.9315 195.502 96.9045 153.57C96.9045 138.132 104.811 121.898 119.171 107.847C129.049 98.1793 143.632 88.4253 153.948 88.4253C169.843 88.4253 174.069 95.9409 180.471 107.32C182.029 110.094 183.799 113.234 186.084 117.035C187.349 119.133 189.096 121.789 190.943 124.605C202.685 142.492 210.076 155 206.045 165.46C202.881 173.601 194.514 180.28 186.424 186.741C183.428 189.132 179.135 192.562 177.233 194.632C178.702 202.8 189.401 220.089 208.061 238.745C226.694 257.378 243.963 268.073 252.151 269.565C254.213 267.663 257.616 263.401 259.991 260.424C266.475 252.299 273.182 243.897 281.35 240.752C283.232 240.026 285.299 239.655 287.479 239.655C296.799 239.655 307.749 246.369 322.198 255.854C325.01 257.701 327.67 259.448 329.783 260.721C333.569 262.998 336.713 264.768 339.483 266.326C350.858 272.729 358.374 276.959 358.374 292.849C358.374 303.161 348.612 317.744 338.94 327.619C324.893 341.971 308.667 349.885 293.249 349.896L293.25 349.9ZM176.68 270.127C213.957 306.354 257.524 327.998 293.23 328.025C314.824 327.998 335.367 299.986 336.5 292.662C336.492 291.166 336.406 290.381 336.34 290.006C335.223 289.037 331.801 287.112 328.754 285.397C325.996 283.842 322.563 281.912 318.488 279.459C316.008 277.963 313.183 276.108 310.191 274.143C304.523 270.424 293.132 262.948 288.281 261.694C285.289 263.788 280.043 270.362 277.082 274.069C269.578 283.467 263.098 291.585 253.961 291.62C231.695 291.596 201.356 262.979 192.586 254.21C183.817 245.44 155.199 215.101 155.176 192.886C155.176 183.687 163.328 177.179 172.77 169.644C176.458 166.702 182.993 161.484 185.098 158.503C183.84 153.643 176.372 142.265 172.653 136.605C170.688 133.613 168.837 130.788 167.348 128.324C164.888 124.234 162.954 120.8 161.403 118.043C159.688 114.996 157.763 111.57 156.794 110.457C156.423 110.394 155.634 110.304 154.138 110.296C146.806 111.421 118.779 131.96 118.779 153.558C118.802 189.277 140.447 232.847 176.677 270.128L176.68 270.127Z" fill="#2D292A"/>
<path d="M11.92 449.81C9.1622 449.81 6.4434 448.767 4.3653 446.787C1.2091 443.775 0.142596 439.173 1.6583 435.08L37.7323 337.568C11.3143 296.216 -1.05671 247.037 2.84129 198.448C6.95069 147.225 29.0563 99.1777 65.0793 63.1577C105.677 22.5597 160.036 0.200684 218.139 0.200684C278.33 0.200684 335.209 23.9307 378.299 67.0247C465.721 154.447 467.455 294.955 382.167 380.255C341.573 420.845 287.217 443.204 229.126 443.204H229.123C187.01 443.204 146.002 431.434 110.133 409.11L16.1796 448.962C14.8046 449.54 13.3515 449.821 11.914 449.821L11.92 449.81ZM111.178 385.833C113.287 385.833 115.381 386.442 117.197 387.634C150.642 409.665 189.346 421.31 229.128 421.31C281.382 421.31 330.237 401.232 366.707 364.767C443.469 288.005 441.735 161.367 362.84 82.4769C323.879 43.5159 272.492 22.0629 218.14 22.0629C165.878 22.0629 117.01 42.1449 80.5503 78.6139C14.3703 144.794 5.29631 250.544 58.9723 330.064C60.945 332.986 61.3864 336.673 60.1637 339.978L30.9607 418.916L106.906 386.705C108.277 386.123 109.73 385.834 111.175 385.834L111.178 385.833Z" fill="#2D292A"/>
</svg>
