<svg width="21" height="21" viewBox="0 0 21 21" fill="none" xmlns="http://www.w3.org/2000/svg">
<path d="M19.1399 0.355799L1.37845 8.42043C1.37845 8.42043 0.538766 8.75335 0.603676 9.36764C0.670466 9.9829 1.35563 10.2644 1.35563 10.2644L5.82479 12.005C5.82479 12.005 7.17384 17.1246 7.43924 18.0986C7.70465 19.07 7.91776 19.093 7.91776 19.093C8.16504 19.2174 8.38981 19.0194 8.38981 19.0194L11.2773 15.9732L15.7777 19.9664C16.9949 20.5809 17.438 19.3007 17.438 19.3007L20.6001 0.842545C20.6001 -0.386801 19.1402 0.355326 19.1402 0.355326L19.1399 0.355799ZM15.9954 17.8166L11.1811 13.5454L9.68716 15.121L10.0157 11.769L16.4331 5.13375L7.68537 10.7993L3.80514 9.2884L18.609 2.56601L15.9954 17.8166Z" fill="black"/>
</svg>
